<?xml version="1.0" encoding="UTF-8"?>
<svg version="1.1" xmlns="http://www.w3.org/2000/svg" width="1536" height="1024">
<path d="M0 0 C506.88 0 1013.76 0 1536 0 C1536 337.92 1536 675.84 1536 1024 C1029.12 1024 522.24 1024 0 1024 C0 686.08 0 348.16 0 0 Z " fill="#03030D" transform="translate(0,0)"/>
<path d="M0 0 C0.98299072 0.19335938 0.98299072 0.19335938 1.98583984 0.390625 C35.52523511 7.16594357 65.42914649 25.44599376 86 53 C86.89912109 54.15822266 86.89912109 54.15822266 87.81640625 55.33984375 C98.80155216 70.10958132 105.84039542 88.2306293 110 106 C110.34224609 107.37478516 110.34224609 107.37478516 110.69140625 108.77734375 C113.92034712 124.15432787 112.89396052 141.63834791 110 157 C109.80535156 158.06734375 109.61070312 159.1346875 109.41015625 160.234375 C102.7627929 192.48785398 83.16510024 222.94042331 55.6953125 241.3125 C33.83333333 255 33.83333333 255 26 255 C26 255.66 26 256.32 26 257 C17.26381567 260.39740502 8.23306193 261.67563957 -1 263 C-1.93585938 263.13535156 -2.87171875 263.27070312 -3.8359375 263.41015625 C-29.77127289 266.38978216 -55.91992186 262.78082841 -79.72265625 251.98046875 C-81.85746483 251.06136591 -83.69159224 250.28794093 -86 250 C-89.48053127 252.95845158 -92.16721652 256.43617562 -95 260 C-95.680625 260.66 -96.36125 261.32 -97.0625 262 C-99.12723918 263.9709177 -99.12723918 263.9709177 -100.5625 266.6875 C-102 269 -102 269 -105 270 C-105.165 270.66 -105.33 271.32 -105.5 272 C-105.665 272.66 -105.83 273.32 -106 274 C-106.99 274.33 -107.98 274.66 -109 275 C-109.33 275.99 -109.66 276.98 -110 278 C-110.66 278.33 -111.32 278.66 -112 279 C-112.391875 279.66 -112.78375 280.32 -113.1875 281 C-116.48987135 286.46599396 -120.45325275 291.51622709 -125 296 C-125.680625 296.86625 -126.36125 297.7325 -127.0625 298.625 C-129 301 -129 301 -131 302 C-131.680625 303.2065625 -131.680625 303.2065625 -132.375 304.4375 C-134.12757005 307.20116815 -135.14140069 307.66598699 -138 309 C-138.33 309.99 -138.66 310.98 -139 312 C-141.0625 312.6875 -141.0625 312.6875 -143 313 C-143 313.66 -143 314.32 -143 315 C-151.47181162 318.62200642 -158.3139288 318.44972997 -167 315.5 C-173.39141558 312.74926418 -179.62129216 307.88715672 -183.28125 301.90625 C-184 300 -184 300 -184 297 C-184.66 297 -185.32 297 -186 297 C-188.60536146 290.64943145 -188.88861297 284.979467 -186.9375 278.4375 C-182.41620469 270.41584704 -175.87029676 265.03597087 -168.72802734 259.38232422 C-165.26283231 256.61036402 -161.85675996 253.76574905 -158.4375 250.9375 C-153.20262638 246.62016648 -147.94949384 242.3307311 -142.63671875 238.109375 C-139.85100841 235.88080673 -137.08481744 233.62947322 -134.32006836 231.375 C-128.3689715 226.52372255 -122.40144152 221.6950028 -116.375 216.9375 C-115.81973633 216.49688232 -115.26447266 216.05626465 -114.69238281 215.60229492 C-111.23027684 212.88154265 -107.68784761 210.39765468 -104 208 C-103.16597656 208.72445312 -102.33195312 209.44890625 -101.47265625 210.1953125 C-95.70266693 215.16470184 -90.04895949 219.92369955 -83.51171875 223.87890625 C-83.01285156 224.24886719 -82.51398438 224.61882812 -82 225 C-82 225.66 -82 226.32 -82 227 C-78.44362455 228.44477752 -74.8619833 229.80157515 -71.2578125 231.12109375 C-69.40113335 231.84384948 -67.5693743 232.63029968 -65.74609375 233.43359375 C-61.886564 235.09791287 -57.95120368 236.38766414 -53.9375 237.625 C-53.25623047 237.8415625 -52.57496094 238.058125 -51.87304688 238.28125 C-45.68775289 240.20635591 -39.99910135 241.12618112 -33.52734375 241.1328125 C-31.68172852 241.13474609 -31.68172852 241.13474609 -29.79882812 241.13671875 C-28.52458984 241.13285156 -27.25035156 241.12898437 -25.9375 241.125 C-24.06674805 241.13080078 -24.06674805 241.13080078 -22.15820312 241.13671875 C-5.23838072 241.13487231 -5.23838072 241.13487231 11 237 C12.35401227 236.60363884 13.70818549 236.20782721 15.0625 235.8125 C42.09415666 226.78611201 63.94196698 207.0742357 77 182 C89.95027336 155.31152713 91.46406555 125.82617245 82.875 97.5625 C74.09541435 72.69137528 57.86200776 53.51018214 36 39 C35.15824219 38.42378906 34.31648437 37.84757812 33.44921875 37.25390625 C22.90082707 30.42847634 10.23187289 26.49816582 -2 24 C-3.18372192 23.74730347 -3.18372192 23.74730347 -4.39135742 23.48950195 C-11.20426991 22.12351209 -17.7463119 21.64851726 -24.6875 21.6875 C-26.25733643 21.69487183 -26.25733643 21.69487183 -27.85888672 21.70239258 C-52.47935999 22.07141581 -76.14351492 31.20062899 -95 47 C-96.00804687 47.84433594 -97.01609375 48.68867188 -98.0546875 49.55859375 C-114.61916317 63.87084736 -125.3466751 81.95328441 -131 103 C-131.35191406 104.12277344 -131.70382812 105.24554688 -132.06640625 106.40234375 C-136.83425798 124.7755297 -136.49173975 152.02845544 -127.92724609 169.14379883 C-126.74223223 171.51601062 -126.85473075 173.38515351 -127 176 C-126.34 176 -125.68 176 -125 176 C-124.48050781 177.00160156 -123.96101563 178.00320313 -123.42578125 179.03515625 C-122.7226044 180.37825946 -122.01809215 181.72066408 -121.3125 183.0625 C-120.950354 183.75190674 -120.58820801 184.44131348 -120.21508789 185.15161133 C-118.32639062 188.69423118 -116.41363582 192.01189079 -113.9375 195.1875 C-112 198 -112 198 -112.0390625 199.88671875 C-113.4680448 203.02931804 -115.73266757 204.52163226 -118.4375 206.625 C-122.35173724 209.66283872 -122.35173724 209.66283872 -126 213 C-127.97485352 212.81860352 -127.97485352 212.81860352 -130 212 C-131.80552042 209.67190619 -133.3801133 207.42162061 -134.9375 204.9375 C-135.38061523 204.24865723 -135.82373047 203.55981445 -136.28027344 202.85009766 C-137.14936288 201.49586801 -138.01363817 200.1385341 -138.87255859 198.77783203 C-139.74594184 197.40061749 -140.64353943 196.03874336 -141.55078125 194.68359375 C-147.73731445 185.35341502 -153.32317234 173.92407081 -154.5625 162.6875 C-154.95656029 159.36613467 -155.48619748 157.83837972 -157 155 C-157.9714814 150.32553715 -158.21698873 145.70427293 -158.30859375 140.9453125 C-158.33155518 139.78980896 -158.33155518 139.78980896 -158.35498047 138.61096191 C-158.74674778 114.36397185 -156.27213138 92.85096093 -145 71 C-144.54802246 70.10861328 -144.54802246 70.10861328 -144.08691406 69.19921875 C-128.08203064 38.10401668 -99.10849894 14.30476773 -65.890625 3.66015625 C-44.78159578 -2.79729612 -21.70077035 -4.28657192 0 0 Z " fill="#6D37BC" transform="translate(434,352)"/>
<path d="M0 0 C6.45445934 3.89802864 11.88714018 8.57451669 14 16 C15.19013191 24.79942682 15.2806687 33.57851966 10 41 C4.49664382 47.37230716 -1.86372952 51.42186529 -10.296875 52.37109375 C-17.57776035 52.51111078 -22.65462736 51.93913677 -28.9140625 48.09375 C-31.19787495 46.69041414 -31.19787495 46.69041414 -35 47 C-36.76987914 47.8534644 -36.76987914 47.8534644 -38.44140625 49.1328125 C-39.09850586 49.60283691 -39.75560547 50.07286133 -40.43261719 50.55712891 C-41.13547852 51.07452637 -41.83833984 51.59192383 -42.5625 52.125 C-43.29758789 52.65399902 -44.03267578 53.18299805 -44.79003906 53.72802734 C-48.94413412 56.72878916 -53.05810843 59.78280456 -57.16796875 62.84375 C-58.01609131 63.47394043 -58.86421387 64.10413086 -59.73803711 64.75341797 C-61.38531458 65.98075095 -63.02823214 67.21396219 -64.66625977 68.45361328 C-65.42092529 69.01806152 -66.17559082 69.58250977 -66.953125 70.1640625 C-67.61473633 70.66373535 -68.27634766 71.1634082 -68.95800781 71.67822266 C-71.21657162 73.14018637 -73.47865492 74.07682172 -76 75 C-75.690625 75.928125 -75.38125 76.85625 -75.0625 77.8125 C-73.6216844 82.77871546 -73.35305964 87.86205306 -73 93 C-62.33071942 96.4716491 -51.61921648 99.73077016 -40.8125 102.75 C-39.76263916 103.04334229 -38.71277832 103.33668457 -37.63110352 103.63891602 C-32.10493028 105.17123549 -26.57085198 106.63897748 -21 108 C-20.34 107.113125 -19.68 106.22625 -19 105.3125 C-14.75622061 100.22478721 -9.57278583 96.96453892 -3 96 C7.13737377 95.2120427 14.19669815 97.00679146 22.17578125 103.32421875 C27.28251005 108.01541073 30.6647487 113.51884405 31.3359375 120.48828125 C31.41306679 128.03923853 31.17852778 133.48641257 27 140 C26.3192868 141.32621709 25.64906662 142.6580109 25 144 C24.34 144 23.68 144 23 144 C22.75894531 144.56332031 22.51789063 145.12664062 22.26953125 145.70703125 C17.10357308 155.03754646 6.78525608 161.40634961 -2 167 C-2.77085937 167.49371094 -3.54171875 167.98742187 -4.3359375 168.49609375 C-19.45368958 177.51616516 -36.83740252 180.53312245 -54.1875 180.25 C-56.10079102 180.24226563 -56.10079102 180.24226563 -58.05273438 180.234375 C-78.63223296 180.06525739 -78.63223296 180.06525739 -88 176 C-88 175.67 -88 175.34 -88 175 C-86.96101563 174.89042969 -85.92203125 174.78085937 -84.8515625 174.66796875 C-59.66779819 171.87750718 -40.98429614 160.60545248 -25 141 C-22.68859704 138.23851844 -22.68859704 138.23851844 -23.3125 135.4375 C-23.91239838 133.01885389 -23.91239838 133.01885389 -25 131 C-25.13415472 128.3276379 -25.04318541 125.67749512 -25 123 C-25.99 123.061875 -26.98 123.12375 -28 123.1875 C-31.50516457 123.17800676 -34.11580165 122.22576257 -37.37744141 120.94702148 C-40.67360116 119.75675862 -44.02017618 118.77576546 -47.38671875 117.80859375 C-48.05583282 117.61623642 -48.7249469 117.42387909 -49.41433716 117.22569275 C-51.5047247 116.62726257 -53.59597417 116.03193874 -55.6875 115.4375 C-57.79403057 114.83801399 -59.90024639 114.23751811 -62.00556946 113.63380432 C-63.90750993 113.08847289 -65.81053654 112.54693371 -67.71362305 112.00561523 C-71 111 -71 111 -73.8046875 109.85888672 C-76.41678824 108.83693716 -77.44080163 108.91379779 -80 110 C-81.65016225 111.2598029 -81.65016225 111.2598029 -83.1875 112.8125 C-89.80166358 118.62791925 -96.19728165 120.72610771 -105.01171875 120.37890625 C-113.50438597 119.30205825 -120.36927006 115.42580986 -126 109 C-127.66768799 106.43394437 -128.88756021 103.84550389 -130 101 C-130.4125 100.030625 -130.825 99.06125 -131.25 98.0625 C-133.08867352 90.55458312 -132.36922984 82.98368843 -129 76 C-124.73162089 69.97048072 -119.49600487 63.60873164 -112 62 C-109.14432463 61.70788376 -106.30707734 61.60242349 -103.4375 61.5625 C-102.71691406 61.55202637 -101.99632812 61.54155273 -101.25390625 61.53076172 C-97.50400893 61.59343171 -94.63827954 61.99443005 -91.22265625 63.58984375 C-87.79065401 65.09160473 -87.3132824 65.21363466 -84 64 C-82.13215124 62.90913578 -82.13215124 62.90913578 -80.3046875 61.515625 C-79.24374878 60.74025391 -79.24374878 60.74025391 -78.16137695 59.94921875 C-77.40687256 59.38847656 -76.65236816 58.82773437 -75.875 58.25 C-74.26184422 57.06753714 -72.64855911 55.88525071 -71.03515625 54.703125 C-70.2064502 54.09275391 -69.37774414 53.48238281 -68.52392578 52.85351562 C-64.4714178 49.87744283 -60.3912998 46.93987536 -56.3125 44 C-53.13802572 41.70640557 -53.13802572 41.70640557 -49.97436523 39.39794922 C-48.65730142 38.46540224 -47.30895578 37.57555856 -45.93383789 36.73095703 C-43.73475932 35.40666543 -43.73475932 35.40666543 -41 33 C-40.30489861 30.02634173 -40.30489861 30.02634173 -40.8125 26.875 C-41.20675 19.29854346 -40.0229922 13.10973877 -35.45703125 6.90234375 C-26.11390652 -3.16770601 -12.4270128 -6.11557022 0 0 Z " fill="#9550DE" transform="translate(468,404)"/>
<path d="M0 0 C6.49361558 5.22581445 9.80659443 11.32439557 10.95825195 19.60375977 C11.11280342 21.91454146 11.15962268 24.1920193 11.140625 26.5078125 C11.13490479 27.33007324 11.12918457 28.15233398 11.12329102 28.99951172 C10.79112111 40.50802446 7.02299941 51.15631659 -1.359375 59.3203125 C-4.21081336 61.65284045 -7.13041768 63.55288323 -10.359375 65.3203125 C-10.94976563 65.660625 -11.54015625 66.0009375 -12.1484375 66.3515625 C-19.46557682 69.83284464 -30.06198962 69.8043017 -37.6171875 67.1953125 C-39.96895321 66.01607955 -42.17824317 64.788382 -44.359375 63.3203125 C-44.3284375 64.53589844 -44.2975 65.75148438 -44.265625 67.00390625 C-44.265625 73.19110225 -45.07429856 79.25426531 -45.859375 85.3828125 C-46.07400391 87.11047852 -46.07400391 87.11047852 -46.29296875 88.87304688 C-46.64355391 91.6894143 -47.00078487 94.5049531 -47.359375 97.3203125 C-53.959375 97.3203125 -60.559375 97.3203125 -67.359375 97.3203125 C-67.359375 86.07079194 -67.359375 86.07079194 -66.87207031 82.13476562 C-66.76472061 81.24308182 -66.65737091 80.35139801 -66.54676819 79.43269348 C-66.42820969 78.49842026 -66.30965118 77.56414703 -66.1875 76.6015625 C-66.06503403 75.59683395 -65.94256805 74.59210541 -65.81639099 73.55693054 C-65.41956047 70.31068733 -65.01453715 67.06552535 -64.609375 63.8203125 C-64.33376358 61.57860899 -64.05878425 59.33682767 -63.78442383 57.0949707 C-63.37129976 53.7201872 -62.95772422 50.3454662 -62.54182434 46.97102356 C-61.70746624 40.19802282 -60.89264957 33.42317557 -60.10546875 26.64453125 C-59.96677872 25.45133774 -59.96677872 25.45133774 -59.82528687 24.23403931 C-59.48265393 21.28088078 -59.14090967 18.32762598 -58.80212402 15.37402344 C-58.57684347 13.41191002 -58.34903597 11.45008723 -58.12109375 9.48828125 C-57.99694092 8.40828857 -57.87278809 7.3282959 -57.74487305 6.21557617 C-57.39221838 3.56698104 -56.88339135 0.94039424 -56.359375 -1.6796875 C-50.089375 -1.6796875 -43.819375 -1.6796875 -37.359375 -1.6796875 C-37.359375 0.6303125 -37.359375 2.9403125 -37.359375 5.3203125 C-36.79089844 4.91039062 -36.22242188 4.50046875 -35.63671875 4.078125 C-34.86457031 3.53929687 -34.09242188 3.00046875 -33.296875 2.4453125 C-32.54277344 1.91164063 -31.78867187 1.37796875 -31.01171875 0.828125 C-22.4094532 -4.06211727 -8.67715914 -5.39492938 0 0 Z " fill="#6E38BD" transform="translate(725.359375,482.6796875)"/>
<path d="M0 0 C1.44330688 0.00410889 1.44330688 0.00410889 2.91577148 0.00830078 C12.79645543 0.15165432 22.281329 1.39086252 31.4375 5.3125 C30.95429152 11.5179142 30.10431876 17.31195246 28.4375 23.3125 C23.6677503 22.7389225 19.37315705 21.73995705 14.8125 20.25 C5.4547624 17.512364 -4.31089987 16.84314995 -13.5625 20.3125 C-16.44294297 22.35281377 -18.17536847 23.74493464 -19.0390625 27.2421875 C-19.32233122 31.19304071 -19.07918351 32.6703222 -16.50390625 35.87109375 C-13.17705988 38.63242041 -9.91249926 40.02042258 -5.875 41.375 C-4.44254275 41.88625504 -3.01025063 42.397973 -1.578125 42.91015625 C-0.23967417 43.37786421 1.09885961 43.84533489 2.4375 44.3125 C12.74638857 48.00788201 21.83727054 52.43209516 27.4375 62.3125 C30.26483167 70.65312843 29.33762538 79.95044515 25.5 87.75 C20.2000143 97.25378962 12.79948768 102.3133513 2.4375 105.3125 C-4.27310799 106.95255494 -10.72240685 107.69991709 -17.625 107.6875 C-18.52750488 107.68661377 -19.43000977 107.68572754 -20.35986328 107.68481445 C-31.71908736 107.48807038 -42.21636181 104.97761916 -52.5625 100.3125 C-51.5184635 93.63066637 -50.1582524 87.5659035 -47.5625 81.3125 C-46.6446875 81.72242188 -45.726875 82.13234375 -44.78125 82.5546875 C-43.54181194 83.09928907 -42.30222025 83.64354111 -41.0625 84.1875 C-39.8559375 84.72117187 -38.649375 85.25484375 -37.40625 85.8046875 C-26.79851093 90.16041724 -13.69207985 91.64088963 -2.75 87.625 C0.98943523 85.78718883 3.62493169 84.19657494 5.4375 80.3125 C5.76145344 77.07885566 5.46203289 74.39735728 4.4375 71.3125 C-0.89465687 64.79541938 -10.54888624 62.11067675 -18.5625 60.3125 C-18.5625 59.6525 -18.5625 58.9925 -18.5625 58.3125 C-19.119375 58.23773438 -19.67625 58.16296875 -20.25 58.0859375 C-27.89858636 56.76810674 -32.65049527 53.37776814 -37.9375 47.8125 C-42.59367336 40.64915637 -42.37534734 32.56076142 -41.5625 24.3125 C-39.13854073 15.78918277 -33.55868853 10.29909283 -26.10546875 5.84375 C-17.48409218 1.288061 -9.6428307 -0.05555887 0 0 Z " fill="#7F42CB" transform="translate(946.5625,443.6875)"/>
<path d="M0 0 C-0.67581523 6.08233706 -1.73638028 12.01314152 -3 18 C-3.59425781 17.81824219 -4.18851563 17.63648438 -4.80078125 17.44921875 C-6.56655751 16.91371895 -8.33506019 16.38716764 -10.10546875 15.8671875 C-11.93028243 15.32048219 -13.74721038 14.74597136 -15.55078125 14.1328125 C-25.88194478 10.84063596 -37.13814249 10.10596099 -47 15 C-49.84766017 16.89844012 -49.98843195 17.95194808 -50.8125 21.375 C-51.00458366 25.08861741 -50.92331621 26.85275529 -49 30 C-45.00044158 32.81090461 -40.66281023 34.24113146 -36.0625 35.75 C-24.05693588 39.88416886 -12.39156884 44.00850282 -5 55 C-2.36842692 62.89471925 -2.5193105 73.69644761 -5.2109375 81.51953125 C-11.48295225 92.04650436 -21.44528469 97.06396578 -33 100 C-49.33921336 103.36592253 -67.61890231 100.90038384 -83 95 C-84.43027825 90.36733774 -83.39403523 86.6905884 -82.0625 82.1875 C-81.86720703 81.49462891 -81.67191406 80.80175781 -81.47070312 80.08789062 C-80.99035554 78.38910039 -80.49651979 76.69413405 -80 75 C-74.61578485 76.74601245 -69.38029174 78.79133296 -64.12109375 80.87890625 C-54.51035352 84.33107452 -42.60117745 84.42770653 -32.9609375 80.96875 C-29.90887698 79.46095915 -28.54823351 78.02915251 -27 75 C-26.08843292 72.24250958 -25.69249037 69.89856303 -26 67 C-29.46946703 60.77888671 -34.48087775 59.2130968 -41 57 C-42.33508166 56.50468722 -43.66856294 56.00502785 -45 55.5 C-47.12978237 54.69865331 -49.26080624 53.90627938 -51.40234375 53.13671875 C-60.16571319 49.85551879 -66.95726528 46.6753682 -71.5625 38.1875 C-73.92345751 32.89660077 -74.88172655 28.72046983 -74 23 C-73.91492188 22.33484375 -73.82984375 21.6696875 -73.7421875 20.984375 C-72.10244973 12.12281342 -66.41718503 5.58913375 -59.28515625 0.43359375 C-55.96199712 -1.65119155 -52.77847489 -2.97995545 -49 -4 C-48.32195313 -4.20367187 -47.64390625 -4.40734375 -46.9453125 -4.6171875 C-31.73620336 -8.45893479 -14.04416618 -6.85877883 0 0 Z " fill="#6934BA" transform="translate(657,450)"/>
<path d="M0 0 C6.90488567 4.84486453 10.04631903 10.4333816 11.62109375 18.67578125 C13.15235767 31.10490729 11.90098342 41.28398516 4.62109375 51.67578125 C-3.82946622 60.74596106 -12.83487952 66.02533644 -25.359375 66.87890625 C-36.38878913 67.04011571 -45.20571202 65.49819461 -53.37890625 57.67578125 C-59.48710405 50.75315708 -61.75766099 45.10300951 -61.69140625 35.92578125 C-61.6857666 35.11882813 -61.68012695 34.311875 -61.67431641 33.48046875 C-61.55673856 27.72497495 -61.0364327 22.85947353 -58.37890625 17.67578125 C-57.98832031 16.85980469 -57.59773438 16.04382813 -57.1953125 15.203125 C-52.45294156 6.29606571 -45.72368464 0.52496014 -36.19140625 -2.82421875 C-24.62590757 -5.88567428 -10.69921211 -5.95571906 0 0 Z " fill="#7C41C7" transform="translate(1109.37890625,484.32421875)"/>
<path d="M0 0 C1.10730469 -0.02900391 2.21460938 -0.05800781 3.35546875 -0.08789062 C11.50831992 -0.15090315 16.52655126 1.2376581 23.0625 5.99609375 C26.82622818 9.90793161 28.209941 12.78018664 28.3125 18.25 C27.99093419 24.16133738 27.23645542 30.03746645 26.4675293 35.90576172 C25.60282464 42.73188761 25.55371325 49.43155881 25.75 56.3125 C27.4 56.9725 29.05 57.6325 30.75 58.3125 C30.75 61.6125 30.75 64.9125 30.75 68.3125 C24.68700572 71.00716413 19.40171743 72.31527147 12.75 71.3125 C8.2475525 69.10220759 5.98442223 66.78134445 3.75 62.3125 C2.986875 63.055 2.22375 63.7975 1.4375 64.5625 C-5.49892411 70.26433809 -13.77676583 71.98889483 -22.58984375 71.625 C-28.90703782 70.88289203 -32.10204933 67.76167047 -36.05078125 63.12890625 C-39.25512014 58.27542878 -38.82601481 51.89416467 -38.25 46.3125 C-33.73510039 36.93540081 -25.48091879 33.77575957 -16.25 30.3125 C-13.4597333 29.3824111 -11.48470458 29.12551231 -8.58203125 28.99609375 C-7.68935547 28.95419922 -6.79667969 28.91230469 -5.87695312 28.86914062 C-4.94818359 28.82982422 -4.01941406 28.79050781 -3.0625 28.75 C-2.12212891 28.70681641 -1.18175781 28.66363281 -0.21289062 28.61914062 C2.10792854 28.51311335 4.42885325 28.41104971 6.75 28.3125 C6.83090971 26.68831255 6.88914995 25.06298255 6.9375 23.4375 C6.97230469 22.53257812 7.00710938 21.62765625 7.04296875 20.6953125 C6.89794922 19.51582031 6.89794922 19.51582031 6.75 18.3125 C3.00672313 15.81698209 0.02476727 15.96955153 -4.3125 16 C-5.07457764 16.00201416 -5.83665527 16.00402832 -6.62182617 16.00610352 C-12.58749258 16.11185304 -17.67056654 17.18857365 -23.25 19.3125 C-24.57 19.6425 -25.89 19.9725 -27.25 20.3125 C-27.25 15.3625 -27.25 10.4125 -27.25 5.3125 C-17.52387004 1.7230949 -10.36270711 0.08923112 0 0 Z " fill="#753DC3" transform="translate(778.25,479.6875)"/>
<path d="M0 0 C6.6 0 13.2 0 20 0 C20.31650391 7.80709643 19.65747951 14.98026695 18.5 22.6875 C17.46688886 29.72034851 16.68065543 36.63615438 16.625 43.75 C16.60469727 44.81287231 16.60469727 44.81287231 16.58398438 45.8972168 C16.56512897 48.06254785 16.56512897 48.06254785 17 51 C20.79008682 53.52672455 22.49197342 53.44341245 27 53 C29.87922101 51.97170678 32.44102846 50.6693104 35 49 C36.04414062 48.35546875 37.08828125 47.7109375 38.1640625 47.046875 C41.04711247 44.59231918 41.53425005 42.55461456 41.98828125 38.83984375 C42.12443963 36.87413982 42.23169762 34.90625647 42.3125 32.9375 C42.43140153 30.96731439 42.55241309 28.99725471 42.67578125 27.02734375 C42.71614502 26.15843506 42.75650879 25.28952637 42.7980957 24.39428711 C42.98780818 22.14457697 43.42885427 20.17725536 44 18 C44.20303728 16.56055408 44.3802896 15.11729709 44.53515625 13.671875 C44.65322632 12.5905127 44.65322632 12.5905127 44.77368164 11.48730469 C44.8689917 10.58399414 44.96430176 9.68068359 45.0625 8.75 C45.371875 5.8625 45.68125 2.975 46 0 C52.6 0 59.2 0 66 0 C66 11.23238381 66 11.23238381 65.16015625 16.9765625 C64.98468262 18.21680176 64.80920898 19.45704102 64.62841797 20.73486328 C64.34828857 22.66048096 64.34828857 22.66048096 64.0625 24.625 C62.7405779 33.98011918 61.6383666 43.25385195 61.21484375 52.6953125 C60.87779683 57.87970694 59.95679433 62.89709691 59 68 C52.4 68 45.8 68 39 68 C39 65.03 39 62.06 39 59 C38.46632813 59.45890625 37.93265625 59.9178125 37.3828125 60.390625 C28.69345949 67.54656277 21.30457117 70.73056538 9.921875 70.31640625 C4.61865764 69.74212737 1.634275 67.9031086 -1.8125 64 C-7.93665778 55.60115504 -5.48114254 41.15570488 -3.97509766 31.32568359 C-3.70058818 29.65361229 -3.42293072 27.98205469 -3.14208984 26.31103516 C-2.02014872 19.5647486 -1.50211548 12.91866055 -1.2109375 6.08984375 C-1 3 -1 3 0 0 Z " fill="#743CC1" transform="translate(1135,481)"/>
<path d="M0 0 C0.71051514 0.00161133 1.42103027 0.00322266 2.15307617 0.00488281 C8.89443793 0.16264785 13.34618865 1.44203344 18.125 6.375 C22.99864328 15.54891677 19.82780546 27.74404279 18.40209961 37.49414062 C16.87795719 48.09030247 16.04375227 58.70477946 15.1875 69.375 C8.2575 69.375 1.3275 69.375 -5.8125 69.375 C-5.60753906 66.93867187 -5.40257812 64.50234375 -5.19140625 61.9921875 C-4.98929519 59.5825368 -4.78748092 57.17286141 -4.58569336 54.76318359 C-4.44733029 53.11276705 -4.30866792 51.46237557 -4.16967773 49.81201172 C-3.83523315 45.83972764 -3.50594769 41.86719412 -3.18798828 37.89355469 C-2.95344795 34.98376691 -2.68609751 32.08050628 -2.38623047 29.17675781 C-2.20858154 27.29875488 -2.20858154 27.29875488 -2.02734375 25.3828125 C-1.91382568 24.28855957 -1.80030762 23.19430664 -1.68334961 22.06689453 C-1.56305253 19.35323686 -1.56305253 19.35323686 -3.18188477 17.53100586 C-6.50696501 15.17372858 -9.94637987 15.75180452 -13.8125 16.375 C-18.56104927 17.36269825 -21.57162569 18.70310032 -24.8125 22.375 C-26.94188337 28.01286402 -27.11344055 34.22320977 -27.55322266 40.17919922 C-27.93198727 44.84777626 -28.51014184 49.48820059 -29.07226562 54.13769531 C-29.68386056 59.21337474 -30.24705261 64.29399406 -30.8125 69.375 C-37.4125 69.375 -44.0125 69.375 -50.8125 69.375 C-50.8125 63.50674192 -50.70695262 58.42470827 -49.97265625 52.70703125 C-49.88624374 52.02372238 -49.79983124 51.34041351 -49.71080017 50.63639832 C-49.43743235 48.48605751 -49.15623139 46.3368248 -48.875 44.1875 C-48.69026671 42.73769237 -48.50601844 41.28782285 -48.32226562 39.83789062 C-46.99637051 29.46153011 -46.99637051 29.46153011 -46.26928711 25.16503906 C-45.56639677 20.87181041 -45.42457721 16.54781777 -45.20703125 12.20898438 C-45.00052396 8.45980895 -44.55386756 5.08183781 -43.8125 1.375 C-37.2125 1.375 -30.6125 1.375 -23.8125 1.375 C-23.4825 3.685 -23.1525 5.995 -22.8125 8.375 C-22.14863281 7.96507812 -21.48476563 7.55515625 -20.80078125 7.1328125 C-19.47626953 6.32457031 -19.47626953 6.32457031 -18.125 5.5 C-17.25488281 4.96632813 -16.38476562 4.43265625 -15.48828125 3.8828125 C-10.25750974 0.93525367 -5.99809849 -0.01402244 0 0 Z " fill="#793EC5" transform="translate(867.8125,479.625)"/>
<path d="M0 0 C0.29712937 8.2370863 -0.60266413 15.87798524 -2 24 C4.27 24 10.54 24 17 24 C17 32 17 32 16 38 C6.1 38.495 6.1 38.495 -4 39 C-4.50722539 43.1242255 -5.005971 47.24919024 -5.5 51.375 C-5.71462891 53.10943359 -5.71462891 53.10943359 -5.93359375 54.87890625 C-7.63079352 66.53497431 -7.63079352 66.53497431 -6 78 C-3.93722893 77.85805236 -1.87478969 77.71127784 0.1875 77.5625 C1.33605469 77.48128906 2.48460937 77.40007812 3.66796875 77.31640625 C7.29902682 77.02906258 7.29902682 77.02906258 12 76 C11.67 80.29 11.34 84.58 11 89 C1.46715297 92.81313881 -9.76804684 96.70207784 -19.875 92.75 C-24.19832058 90.32894048 -26.385384 88.67192744 -28.1171875 83.9609375 C-29.33949077 79.40427582 -29.09922723 75.04799719 -28.8125 70.375 C-28.76424072 69.47434814 -28.71598145 68.57369629 -28.66625977 67.64575195 C-28.05153181 57.68164115 -26.58659861 47.84888569 -25 38 C-28.63 38 -32.26 38 -36 38 C-36 33.38 -36 28.76 -36 24 C-31.71 24 -27.42 24 -23 24 C-23.061875 22.39125 -23.061875 22.39125 -23.125 20.75 C-23.14543538 15.06896377 -22.03918231 9.56704807 -21 4 C-14.13897034 1.53706628 -7.33870901 -0.37634405 0 0 Z " fill="#763EC2" transform="translate(1244,457)"/>
<path d="M0 0 C0.83789062 0.00515625 1.67578125 0.0103125 2.5390625 0.015625 C17.42495564 0.19997043 17.42495564 0.19997043 22 3.25 C21.69052329 5.18798521 21.37731166 7.12537426 21.0625 9.0625 C20.88847656 10.14144531 20.71445313 11.22039062 20.53515625 12.33203125 C20 15.25 20 15.25 19 18.25 C16.04244799 17.83731832 13.46334842 17.46880342 10.75 16.1875 C5.0474511 14.24344924 -0.83390717 14.37459767 -6.3125 16.9375 C-11.71206938 20.06184761 -15.48077894 23.66937611 -17.4921875 29.73828125 C-18.75684982 35.99349565 -19.8257616 44.29825542 -16.25 49.9375 C-12.27432215 54.09832203 -12.27432215 54.09832203 -6.86328125 55.6484375 C-0.36347094 55.60553446 5.26406839 55.36834817 11.328125 52.90625 C13 52.25 13 52.25 15 52.25 C15.495 59.18 15.495 59.18 16 66.25 C4.20137551 71.26037478 -10.18463049 74.31380004 -22.625 69.5 C-24.1005366 68.78443877 -25.56182527 68.03796546 -27 67.25 C-28.0725 66.71375 -29.145 66.1775 -30.25 65.625 C-35.0602685 61.4706772 -39.64538964 54.72561252 -40.16113281 48.21630859 C-40.20697849 45.68573367 -40.2353065 43.15595609 -40.25 40.625 C-40.270625 39.76003906 -40.29125 38.89507813 -40.3125 38.00390625 C-40.37578034 27.45190913 -36.99896829 19.16519687 -30 11.25 C-20.80355863 3.05377582 -12.21459881 -0.30066705 0 0 Z " fill="#7D41C8" transform="translate(1023,479.75)"/>
<path d="M0 0 C0.515625 0.70125 1.03125 1.4025 1.5625 2.125 C7.24800625 8.83098174 12.98077182 13.50038027 21.96484375 14.24609375 C32.06778359 14.45839286 37.87323769 11.74291203 46 6 C46.495 6.99 46.495 6.99 47 8 C46.34 8 45.68 8 45 8 C44.75894531 8.56332031 44.51789063 9.12664063 44.26953125 9.70703125 C39.10357308 19.03754646 28.78525608 25.40634961 20 31 C19.22914063 31.49371094 18.45828125 31.98742187 17.6640625 32.49609375 C2.54631042 41.51616516 -14.83740252 44.53312245 -32.1875 44.25 C-34.10079102 44.24226562 -34.10079102 44.24226562 -36.05273438 44.234375 C-56.63223296 44.06525739 -56.63223296 44.06525739 -66 40 C-66 39.67 -66 39.34 -66 39 C-64.96101563 38.89042969 -63.92203125 38.78085937 -62.8515625 38.66796875 C-38.49831658 35.96953194 -20.9588706 25.51585777 -4.8046875 7.2890625 C-2.96925694 4.96100555 -1.46464968 2.57450844 0 0 Z " fill="#6D38BC" transform="translate(446,540)"/>
<path d="M0 0 C0.97469238 -0.00064453 1.94938477 -0.00128906 2.95361328 -0.00195312 C10.64537185 0.05394074 17.99594636 0.74133275 25.5625 2.1875 C25.5625 2.5175 25.5625 2.8475 25.5625 3.1875 C23.65791016 3.26097656 23.65791016 3.26097656 21.71484375 3.3359375 C-8.22957455 4.58167209 -33.60346313 10.52709364 -55.4375 32.1875 C-56.30375 33.0125 -57.17 33.8375 -58.0625 34.6875 C-58.84625 35.5125 -59.63 36.3375 -60.4375 37.1875 C-61.02917969 37.7959375 -61.62085938 38.404375 -62.23046875 39.03125 C-74.70203243 52.34711683 -82.77656922 69.40246209 -86.4375 87.1875 C-86.60306396 87.85797363 -86.76862793 88.52844727 -86.93920898 89.21923828 C-92.10932575 110.58967166 -87.41798832 134.973729 -77.6953125 154.37109375 C-77.28023438 155.30050781 -76.86515625 156.22992187 -76.4375 157.1875 C-76.7675 157.8475 -77.0975 158.5075 -77.4375 159.1875 C-93.34402582 134.94898446 -100.35750146 106.60923907 -94.875 77.9375 C-89.62381579 53.0034706 -74.02386861 30.27922481 -52.71533203 16.3293457 C-36.71790572 6.15578973 -19.05863686 -0.01291017 0 0 Z " fill="#321260" transform="translate(407.4375,381.8125)"/>
<path d="M0 0 C3.98655137 1.81206881 5.56346832 3.30154932 7.875 7 C10.99589323 15.69391685 9.17358896 25.5961185 6 34 C3.47609005 38.78672577 0.9222035 41.67314016 -4 44 C-8.44684568 44.70910952 -12.85467637 45.0747859 -16.97265625 43.01171875 C-19.82404598 40.74882223 -21.71375805 38.36624582 -23 35 C-23.94202038 24.71117999 -23.84251723 13.29666048 -17.0625 4.9375 C-12.19880065 -0.36717476 -6.90952031 -0.8623256 0 0 Z " fill="#050410" transform="translate(1092,493)"/>
<path d="M0 0 C3.91368599 3.29105413 5.54519778 5.75429648 6.21875 10.87890625 C6.29323544 20.40373216 5.80367054 29.57924052 -0.84765625 37.125 C-6.15830558 41.71799401 -10.50561745 41.73591415 -17.25 41.3125 C-20.4292791 40.69865012 -23.34358341 39.76570829 -26.25 38.3125 C-25.86769441 34.30978344 -25.47675222 30.30800968 -25.078125 26.30688477 C-24.9439684 24.94838798 -24.81208807 23.58966425 -24.68261719 22.23071289 C-24.49506786 20.26649433 -24.29838565 18.30315472 -24.1015625 16.33984375 C-23.98635254 15.16156006 -23.87114258 13.98327637 -23.75244141 12.76928711 C-23.22283781 9.12562468 -22.45535894 5.79219722 -21.25 2.3125 C-15.04108901 -1.79588389 -6.69545149 -3.47648443 0 0 Z " fill="#050310" transform="translate(709.25,495.6875)"/>
<path d="M0 0 C4.1388691 2.43282879 6.54661248 4.66248006 8.67578125 9.0546875 C9.4889999 14.43218738 9.59720522 20.13231146 7.05078125 25.0546875 C3.92635479 29.00133145 1.43620055 31.65905737 -3.72265625 32.3984375 C-9.95034593 32.62285875 -14.01824459 31.59129901 -19.01953125 27.75390625 C-22.90331911 24.11398414 -23.83658131 20.90328156 -24.13671875 15.6171875 C-23.8727811 9.74288277 -22.36749063 6.65555923 -18.24609375 2.54296875 C-12.81381195 -1.66373727 -6.46637186 -2.63002015 0 0 Z " fill="#4D1BA8" transform="translate(478.32421875,511.9453125)"/>
<path d="M0 0 C5.28132702 1.79811718 8.52376635 5.0475327 11 10 C12.44363755 14.51839803 12.35516354 17.91939843 10.375 22.25 C8.06950426 26.3246435 5.19660082 28.90169959 1 31 C-4.20185538 31.51848559 -8.63560371 31.62018013 -13.4375 29.4375 C-17.55342417 25.52235262 -19.72677579 22.18579369 -20.4375 16.5 C-19.74238376 10.93907012 -18.24302831 6.7883835 -13.9375 3.125 C-9.18822479 -0.3106459 -5.77669926 -0.67236991 0 0 Z " fill="#5F28B3" transform="translate(459,413)"/>
<path d="M0 0 C3.15689734 1.60714774 5.19415756 2.97438234 7.375 5.75 C8.65569448 10.36050013 8.68940252 14.40348891 6.8125 18.75 C3.48103432 22.88561256 1.47330355 24.81291384 -3.9375 25.5 C-8.19258151 25.26717479 -10.75131594 23.79537931 -14 21 C-16.8218117 17.61382596 -17.63925105 14.50428257 -17.49609375 10.06640625 C-16.57136894 6.21459974 -13.89231952 3.58510424 -11 1 C-7.52817697 -0.73591152 -3.79591036 -0.46571673 0 0 Z " fill="#0A0616" transform="translate(370,482)"/>
<path d="M0 0 C-0.19115961 11.05250126 -0.19115961 11.05250126 -3.1875 14.5625 C-4.115625 15.036875 -5.04375 15.51125 -6 16 C-6.94875 16.5775 -7.8975 17.155 -8.875 17.75 C-12.57398812 19.22959525 -15.05037313 19.51198867 -19 19 C-21.4375 17.5 -21.4375 17.5 -23 15 C-23.70223113 10.08438209 -23.842232 8.17402037 -20.9375 4.125 C-14.42935805 -0.58301758 -7.71004253 -0.25095979 0 0 Z " fill="#0B0619" transform="translate(784,519)"/>
<path d="M0 0 C1.8134321 3.30590276 2.83752747 6.63170738 3.875 10.25 C5.07475544 14.27483995 6.34443907 17.97610481 8.3125 21.6875 C9.1478125 23.3271875 9.1478125 23.3271875 10 25 C9.67 25.66 9.34 26.32 9 27 C-2.41088012 8.92296998 -2.41088012 8.92296998 -1.69140625 3.8046875 C-1 2 -1 2 0 0 Z " fill="#2B0E5A" transform="translate(321,514)"/>
<path d="M0 0 C4.95 0 9.9 0 15 0 C14.67 0.99 14.34 1.98 14 3 C8.80790596 3.21192221 4.873261 2.5912689 0 1 C0 0.67 0 0.34 0 0 Z " fill="#6739AF" transform="translate(380,579)"/>
<path d="M0 0 C4.24846075 0.47205119 6.26819288 2.88877522 9 6 C9 6.66 9 7.32 9 8 C9.66 8 10.32 8 11 8 C11 8.66 11 9.32 11 10 C11.66 10 12.32 10 13 10 C12.67 10.99 12.34 11.98 12 13 C9.99698146 11.0238076 7.99750133 9.04425526 6 7.0625 C5.42765625 6.49853516 4.8553125 5.93457031 4.265625 5.35351562 C2.82474495 3.92121224 1.41012857 2.46258871 0 1 C0 0.67 0 0.34 0 0 Z " fill="#975AD1" transform="translate(484,400)"/>
<path d="M0 0 C1.86889895 2.80334843 3.27024908 5.51277094 4.6875 8.5625 C5.14511719 9.53316406 5.60273438 10.50382813 6.07421875 11.50390625 C6.37972656 12.32761719 6.68523437 13.15132812 7 14 C6.67 14.66 6.34 15.32 6 16 C5.01441551 14.42065361 4.03677459 12.83634827 3.0625 11.25 C2.51722656 10.36828125 1.97195313 9.4865625 1.41015625 8.578125 C0.16239304 6.29689586 -0.64920469 4.56136261 -1 2 C-0.67 1.34 -0.34 0.68 0 0 Z " fill="#201049" transform="translate(324,525)"/>
<path d="M0 0 C0.33 0.66 0.66 1.32 1 2 C0.34 2 -0.32 2 -1 2 C-1.268125 2.61875 -1.53625 3.2375 -1.8125 3.875 C-3 6 -3 6 -6 8 C-6 6.68 -6 5.36 -6 4 C-3 1.75 -3 1.75 0 0 Z " fill="#622FA9" transform="translate(492,546)"/>
<path d="M0 0 C-0.33 4.29 -0.66 8.58 -1 13 C-1.33 13 -1.66 13 -2 13 C-2.07347656 11.95199219 -2.07347656 11.95199219 -2.1484375 10.8828125 C-2.26058594 9.51769531 -2.26058594 9.51769531 -2.375 8.125 C-2.44460938 7.22007812 -2.51421875 6.31515625 -2.5859375 5.3828125 C-2.79568132 2.82058097 -2.79568132 2.82058097 -5 1 C-2 0 -2 0 0 0 Z " fill="#543095" transform="translate(1256,533)"/>
<path d="M0 0 C4.12989477 4.26311718 4.61271765 7.28758534 5 13 C1.42988974 9.267612 0.89086558 4.9050011 0 0 Z " fill="#9050CE" transform="translate(515,442)"/>
<path d="M0 0 C1.01114519 4.04458076 1.51775271 7.86645178 2 12 C0.68 11.67 -0.64 11.34 -2 11 C-1.34 7.37 -0.68 3.74 0 0 Z " fill="#532F92" transform="translate(896,533)"/>
</svg>
